<?xml version="1.0" standalone="no"?><!DOCTYPE svg PUBLIC "-//W3C//DTD SVG 1.1//EN" "http://www.w3.org/Graphics/SVG/1.1/DTD/svg11.dtd"><svg t="1594806712189" class="icon" viewBox="0 0 1024 1024" version="1.1" xmlns="http://www.w3.org/2000/svg" p-id="3564" xmlns:xlink="http://www.w3.org/1999/xlink" width="200" height="200"><defs><style type="text/css"></style></defs><path d="M152.5 836.5h116.6c33.1 0 60-26.9 60-60v-254c0-33.1-26.9-60-60-60H152.5c-33.1 0-60 26.9-60 60v253.9c0 33.2 26.9 60.1 60 60.1z m0-314H269s0.1 0.1 0.1 0v253.8s-0.1 0.1 0 0.1H152.6h-0.1V522.5c0 0.1 0.1 0 0 0zM453.7 834.1h116.6c33.1 0 60-26.9 60-60V323.9c0-33.1-26.9-60-60-60H453.7c-33.1 0-60 26.9-60 60v450.2c0 33.1 26.9 60 60 60z m0-510.2h116.5s0.1 0.1 0.1 0V774s-0.1 0.1 0 0.1H453.8h-0.1V323.9c0 0.1 0 0 0 0zM752 836.5h116.6c33.1 0 60-26.9 60-60V130.1c0-33.1-26.9-60-60-60H752c-33.1 0-60 26.9-60 60v646.4c0 33.1 26.9 60 60 60z m0-706.4h116.5s0.1 0.1 0.1 0v646.3s-0.1 0.1 0 0.1H752.1h-0.1V130.1c-0.1 0.1 0 0 0 0zM913.7 893.9H110.3c-16.6 0-30 13.4-30 30s13.4 30 30 30h803.5c16.6 0 30-13.4 30-30s-13.5-30-30.1-30z" p-id="3565"></path></svg>